<svg xmlns="http://www.w3.org/2000/svg" viewBox="0 0 1200 760" role="img" aria-labelledby="title desc">
  <title id="title">Kakinoha sushi</title>
  <desc id="desc">A stylized tray of Nara kakinoha sushi wrapped with persimmon leaves.</desc>
  <rect width="1200" height="760" fill="#f4efe4"/>
  <rect x="250" y="230" width="700" height="335" rx="44" fill="#b78555"/>
  <rect x="284" y="262" width="632" height="270" rx="34" fill="#ead6b9"/>
  <g transform="translate(342 302)">
    <g>
      <rect x="0" y="0" width="150" height="78" rx="28" fill="#ffffff"/>
      <path d="M22 39c42-54 92-54 134 0-42 54-92 54-134 0z" fill="#66894f"/>
      <path d="M44 39h90" stroke="#47663e" stroke-width="5"/>
    </g>
    <g transform="translate(184 0)">
      <rect x="0" y="0" width="150" height="78" rx="28" fill="#ffffff"/>
      <path d="M22 39c42-54 92-54 134 0-42 54-92 54-134 0z" fill="#7e9d58"/>
      <path d="M44 39h90" stroke="#526b3f" stroke-width="5"/>
    </g>
    <g transform="translate(368 0)">
      <rect x="0" y="0" width="150" height="78" rx="28" fill="#ffffff"/>
      <path d="M22 39c42-54 92-54 134 0-42 54-92 54-134 0z" fill="#5f854d"/>
      <path d="M44 39h90" stroke="#46673d" stroke-width="5"/>
    </g>
    <g transform="translate(0 116)">
      <rect x="0" y="0" width="150" height="78" rx="28" fill="#ffffff"/>
      <path d="M22 39c42-54 92-54 134 0-42 54-92 54-134 0z" fill="#6e9250"/>
      <path d="M44 39h90" stroke="#4a683d" stroke-width="5"/>
    </g>
    <g transform="translate(184 116)">
      <rect x="0" y="0" width="150" height="78" rx="28" fill="#ffffff"/>
      <path d="M22 39c42-54 92-54 134 0-42 54-92 54-134 0z" fill="#7b5f43"/>
      <path d="M44 39h90" stroke="#604832" stroke-width="5"/>
    </g>
    <g transform="translate(368 116)">
      <rect x="0" y="0" width="150" height="78" rx="28" fill="#ffffff"/>
      <path d="M22 39c42-54 92-54 134 0-42 54-92 54-134 0z" fill="#6b904d"/>
      <path d="M44 39h90" stroke="#4d6a3d" stroke-width="5"/>
    </g>
  </g>
  <circle cx="230" cy="190" r="50" fill="#d9873b"/>
  <path d="M180 190c34-46 70-66 108-60-20 38-54 60-108 60z" fill="#7b9a54"/>
</svg>
