<svg xmlns="http://www.w3.org/2000/svg" viewBox="0 0 1200 760" role="img" aria-labelledby="title desc">
  <title id="title">Kushikatsu</title>
  <desc id="desc">A stylized tray of Osaka kushikatsu skewers with lemon and dipping sauce.</desc>
  <rect width="1200" height="760" fill="#f5efe3"/>
  <rect x="225" y="470" width="750" height="112" rx="56" fill="#2f4b55"/>
  <ellipse cx="600" cy="470" rx="380" ry="110" fill="#496975"/>
  <g stroke="#b07b43" stroke-width="12" stroke-linecap="round">
    <path d="M300 204l360 360"/><path d="M420 168l290 410"/><path d="M560 156l160 440"/>
    <path d="M720 176l-90 410"/><path d="M850 214L590 570"/>
  </g>
  <g fill="#d99b43" stroke="#b66d2d" stroke-width="7">
    <rect x="342" y="250" width="84" height="112" rx="28" transform="rotate(-45 384 306)"/>
    <circle cx="492" cy="294" r="58"/>
    <rect x="530" y="255" width="94" height="122" rx="30" transform="rotate(-20 577 316)"/>
    <circle cx="704" cy="318" r="58"/>
    <rect x="742" y="260" width="94" height="122" rx="30" transform="rotate(35 789 321)"/>
    <circle cx="850" cy="354" r="54"/>
  </g>
  <circle cx="332" cy="506" r="58" fill="#f1d16d"/>
  <path d="M332 448v116M274 506h116" stroke="#ffffff" stroke-width="10" opacity=".75"/>
  <rect x="764" y="466" width="142" height="88" rx="24" fill="#5d2e22"/>
  <path d="M788 510c30 14 70 14 102 0" stroke="#8b4a35" stroke-width="12" stroke-linecap="round"/>
</svg>
