<svg xmlns="http://www.w3.org/2000/svg" viewBox="0 0 1200 760" role="img" aria-labelledby="title desc">
  <title id="title">Matcha dessert</title>
  <desc id="desc">A stylized Kyoto matcha parfait with cream, mochi, and tea.</desc>
  <rect width="1200" height="760" fill="#f4efe1"/>
  <path d="M430 228h340l-62 415c-10 68-206 68-216 0z" fill="#d7ece0" stroke="#789783" stroke-width="8"/>
  <ellipse cx="600" cy="228" rx="178" ry="56" fill="#ffffff"/>
  <path d="M456 230c88 54 200 54 288 0v108H456z" fill="#6ba163"/>
  <path d="M478 342h244v110H478z" fill="#f0e7cf"/>
  <path d="M498 452h204v118H498z" fill="#4f8a4c"/>
  <ellipse cx="600" cy="570" rx="104" ry="36" fill="#2f6f38"/>
  <g fill="#ffffff">
    <circle cx="548" cy="190" r="42"/><circle cx="608" cy="178" r="48"/><circle cx="664" cy="198" r="40"/>
  </g>
  <circle cx="520" cy="300" r="34" fill="#f7f0da"/>
  <circle cx="686" cy="304" r="34" fill="#f7f0da"/>
  <circle cx="608" cy="298" r="28" fill="#c74236"/>
  <path d="M790 492c78-68 140-74 186-20-30 74-96 106-186 20z" fill="#7faa5b"/>
  <path d="M410 498c-78-68-140-74-186-20 30 74 96 106 186 20z" fill="#7faa5b"/>
</svg>
